<?xml version="1.0" standalone="no"?>
<!DOCTYPE svg PUBLIC "-//W3C//DTD SVG 20010904//EN"
 "http://www.w3.org/TR/2001/REC-SVG-20010904/DTD/svg10.dtd">
<svg version="1.0" xmlns="http://www.w3.org/2000/svg"
 width="511.000000pt" height="131.000000pt" viewBox="0 0 511.000000 131.000000"
 preserveAspectRatio="xMidYMid meet">

<g transform="translate(0.000000,131.000000) scale(0.100000,-0.100000)"
fill="#000000" stroke="none">
<path d="M556 1264 c-243 -53 -429 -241 -480 -487 -20 -96 -20 -148 0 -244 77
-375 459 -590 822 -463 83 29 158 78 226 146 105 105 159 218 179 375 9 72 8
100 -6 174 -51 259 -235 447 -490 499 -92 19 -160 19 -251 0z m299 -135 c124
-46 227 -136 284 -250 106 -211 41 -481 -148 -620 -105 -77 -162 -94 -312 -94
l-126 0 -87 43 c-180 90 -286 257 -286 452 0 135 47 247 147 348 65 66 168
124 254 142 70 15 206 5 274 -21z"/>
<path d="M344 977 c-3 -8 -4 -119 -2 -248 l3 -234 34 -48 c38 -56 136 -131
237 -183 l71 -36 79 40 c162 81 256 174 269 266 3 22 5 133 3 246 l-3 205
-343 3 c-283 2 -343 0 -348 -11z m671 -237 c0 -201 -2 -218 -22 -256 -32 -61
-119 -135 -217 -184 l-88 -44 -85 43 c-98 50 -198 138 -224 196 -16 34 -19 68
-19 246 0 113 3 209 7 212 4 4 151 6 327 5 l321 -3 0 -215z"/>
<path d="M382 727 l3 -214 29 -42 c35 -50 128 -122 212 -164 l61 -30 69 37
c97 51 164 104 201 160 l33 48 0 209 0 209 -306 0 -305 0 3 -213z m535 91 c5
-32 6 -58 2 -58 -4 0 -16 16 -28 35 -24 42 -59 57 -120 53 l-46 -3 -3 -192
c-2 -182 -1 -194 18 -213 11 -11 29 -20 40 -20 11 0 20 -4 20 -9 0 -5 -49 -9
-110 -9 -60 1 -110 5 -110 9 0 5 9 9 20 9 11 0 29 9 40 20 19 19 20 33 20 199
0 99 -3 186 -6 195 -9 23 -85 21 -132 -3 -21 -11 -44 -31 -52 -45 -22 -42 -30
-30 -14 22 9 26 17 52 19 57 1 6 83 10 217 10 l215 0 10 -57z"/>
<path d="M2226 935 c-20 -21 -20 -39 0 -59 20 -21 30 -20 55 5 18 18 19 23 6
42 -18 28 -40 32 -61 12z"/>
<path d="M2700 725 l0 -225 35 0 35 0 0 105 c0 99 2 107 25 130 29 30 49 31
75 5 18 -18 20 -33 20 -130 l0 -110 35 0 35 0 0 120 c0 137 -10 169 -60 190
-41 17 -100 6 -124 -22 -19 -23 -19 -22 -14 70 l5 92 -33 0 -34 0 0 -225z"/>
<path d="M4636 935 c-20 -21 -20 -39 0 -59 20 -21 30 -20 55 5 18 18 19 23 6
42 -18 28 -40 32 -61 12z"/>
<path d="M1550 715 l0 -215 35 0 34 0 3 91 3 91 74 -91 75 -91 50 0 49 0 -19
23 c-11 12 -55 61 -98 110 l-78 87 29 34 c15 19 57 66 92 105 l63 71 -45 0
c-45 0 -47 -1 -119 -86 l-73 -86 -3 86 -3 86 -34 0 -35 0 0 -215z"/>
<path d="M3640 715 l0 -215 83 0 c126 0 188 26 238 98 32 47 39 153 14 218
-31 82 -100 114 -247 114 l-88 0 0 -215z m218 125 c59 -36 80 -132 44 -199
-25 -46 -74 -71 -139 -71 l-53 0 0 145 0 145 58 0 c40 0 67 -6 90 -20z"/>
<path d="M4350 715 l0 -215 35 0 35 0 0 90 0 90 75 0 75 0 0 35 0 35 -75 0
-75 0 0 55 0 55 80 0 80 0 0 35 0 35 -115 0 -115 0 0 -215z"/>
<path d="M3063 890 c-18 -7 -23 -17 -23 -45 0 -31 -3 -35 -25 -35 -21 0 -25
-5 -25 -30 0 -25 4 -30 25 -30 25 0 25 -1 25 -92 0 -55 5 -103 13 -118 18 -36
62 -54 101 -43 25 7 32 14 34 41 3 31 2 32 -28 25 -43 -8 -50 5 -50 105 l0 82
40 0 c38 0 40 2 40 29 0 27 -3 30 -37 33 -37 3 -38 4 -41 46 -3 44 -10 48 -49
32z"/>
<path d="M1973 794 c-24 -24 -25 -24 -20 -5 4 18 1 21 -29 21 l-34 0 0 -155 0
-155 35 0 35 0 0 109 c0 106 1 110 26 130 33 26 49 26 74 1 18 -18 20 -33 20
-130 l0 -110 36 0 36 0 -4 131 -3 131 -33 29 c-44 39 -102 40 -139 3z"/>
<path d="M2425 810 c-52 -21 -85 -83 -85 -162 0 -119 90 -187 183 -140 20 11
37 17 37 12 0 -23 -25 -72 -40 -80 -27 -14 -85 -12 -125 4 l-35 15 0 -34 c0
-44 26 -59 105 -59 70 0 112 20 141 68 16 26 19 56 22 204 l4 172 -36 0 c-20
0 -36 -5 -36 -11 0 -5 -10 -3 -22 5 -24 17 -80 20 -113 6z m112 -76 c22 -23
25 -32 21 -80 -6 -65 -28 -94 -74 -94 -43 0 -74 38 -74 91 0 94 70 140 127 83z"/>
<path d="M3274 810 c-31 -12 -64 -59 -64 -89 1 -37 20 -58 81 -89 38 -19 54
-33 54 -47 0 -16 -8 -21 -38 -23 -23 -2 -48 3 -62 12 -34 22 -35 21 -35 -24 0
-37 2 -40 38 -49 50 -15 65 -14 113 6 52 20 74 65 58 112 -8 23 -25 37 -67 58
-79 38 -90 55 -47 75 19 9 33 8 65 -5 l40 -15 0 38 c0 31 -4 39 -22 44 -32 8
-89 6 -114 -4z"/>
<path d="M4099 797 c-89 -59 -93 -217 -7 -281 33 -24 108 -27 156 -7 27 11 32
19 32 47 0 38 -4 40 -40 19 -42 -24 -95 -19 -119 11 -12 15 -21 31 -21 35 0 5
45 9 100 9 l100 0 0 46 c0 25 -7 60 -15 78 -31 65 -121 87 -186 43z m109 -53
c42 -29 28 -44 -43 -44 -62 0 -65 1 -55 20 21 40 62 50 98 24z"/>
<path d="M2220 655 l0 -155 35 0 35 0 0 155 0 155 -35 0 -35 0 0 -155z"/>
<path d="M4630 655 l0 -155 35 0 35 0 0 155 0 155 -35 0 -35 0 0 -155z"/>
</g>
</svg>
