<svg xmlns="http://www.w3.org/2000/svg" viewBox="0 0 131 131"><defs><style>.cls-1{fill:#b7eaff;}.cls-2,.cls-3,.cls-5,.cls-7,.cls-8{fill:#fff;}.cls-2{fill-opacity:0.06;}.cls-4,.cls-6{fill:#f1f6f8;}.cls-5,.cls-6{fill-opacity:0.45;}.cls-7{fill-opacity:0.2;}.cls-8{fill-opacity:0.33;}.cls-9{fill:#5dc4d9;}.cls-10{fill:#4e5e6e;}.cls-11{fill:#fea192;}.cls-12{fill:#ff738e;}</style></defs><title>logo</title><g id="Calque_2" data-name="Calque 2"><g id="Calque_1-2" data-name="Calque 1"><circle class="cls-1" cx="65.5" cy="65.5" r="65.5"/><path class="cls-2" d="M47.26,24.19q-10.11.11-15.12,2.52c-2.36,1.7-4,5.24-5,10.59q-1.87,11.18.24,33.09.75,12.15,6,27.43L85,79.25a162.55,162.55,0,0,1,1.4-18.45c.31-2.18.54-3.65.71-4.4q3-11.46,3-13.51a9,9,0,0,0-1.48-6.64q-4.34-5.7-14.48-8.4a105,105,0,0,0-26.83-3.66"/><path class="cls-3" d="M53.63,54.89H52.26l-1,0-.92,0-.93.05-.73,0-.65,0-.71.06-.73.07-.79.09-.8.09-.68.09-.63.11-.69.13-.9.19-1.05.23-.9.22c-.26.06-.5.13-.74.2l-.76.22-.72.24-.64.22-.61.21-.64.24-.68.27c-.23.09-.45.18-.65.28l-.7.32-.75.38-.69.38-.64.39-.57.36-.61.42c-.24.16-.47.34-.69.51l-.6.49L29,62c-.17.15-.32.3-.46.44l-.43.43c-.14.14-.28.29-.41.44s-.28.32-.42.5a3,3,0,0,0-.34.58,6.62,6.62,0,0,0-.26.64c-.07.22-.14.44-.2.67s-.1.45-.14.66-.06.45-.08.7,0,.5-.05.73v.7c0,.24,0,.46,0,.65s0,.4,0,.59l.06.61c0,.2.05.4.08.61s.06.46.11.75.09.57.14.82.09.51.14.75.1.52.16.82.12.59.18.87.11.52.16.73.09.41.14.65l.17.77c.07.28.12.52.16.72s.09.41.14.64.11.48.17.76l.18.85c.06.29.12.56.17.81s.1.48.15.69.09.43.13.63l.14.7c.06.25.11.5.15.74s.11.49.16.77l.18.86.17.8c.05.24.1.49.15.72l.15.71.15.7c0,.22.09.46.15.7s.11.52.17.81.13.6.21.93.14.63.19.87.12.51.19.78.13.54.2.8l.19.72c.07.22.13.44.19.65s.13.45.21.7l.27.85c.1.32.19.58.27.79s.15.43.22.64l.27.72c.11.27.22.53.32.79l.3.69q.13.31.36.78c.15.31.28.58.4.81s.24.48.39.75l.42.77c.14.26.29.5.43.75l.42.7.39.62.41.61.42.62.45.64.53.73c.17.25.34.48.5.7s.3.41.43.57.27.36.43.55l.52.62.49.55.47.51.48.49.46.47.54.53.53.49.54.47.58.48c.18.13.35.27.54.4a7.51,7.51,0,0,0,.63.44q.34.24.66.42l.58.33.63.31.75.31.71.25.69.19.75.16.81.14c.3,0,.58.08.84.1l.87.07.82,0h1.43l.73,0c.26,0,.5,0,.72,0l.7,0,.68-.06.6-.07.66-.09.71-.1.72-.1.74-.12.7-.12.68-.13L63,116l.87-.19.84-.19.73-.17.67-.15.6-.15.68-.18.77-.21.76-.21.73-.19.66-.18.62-.18.64-.18.66-.2.69-.21.75-.23.78-.24.78-.25c.27-.08.53-.17.78-.26l.77-.26.7-.25.6-.23.67-.26.88-.35.79-.33c.2-.08.42-.19.68-.31s.5-.25.75-.39l.69-.4c.21-.13.44-.29.69-.46s.45-.33.62-.47.35-.29.53-.47a1.58,1.58,0,0,0,.4-.55,5.46,5.46,0,0,0,.21-.61c.06-.22.11-.42.15-.61l.13-.67q.06-.36.12-.84c0-.31.08-.6.1-.88s.06-.53.07-.78,0-.59.07-1,0-.85,0-1.23,0-.7,0-1,0-.63,0-1.06,0-.84,0-1.25V96.44c0-.43,0-.78,0-1V92c0-.43,0-.81,0-1.14s0-.68,0-1.06,0-.78,0-1.2v-1c0-.23,0-.54,0-.92v-1c0-.3,0-.57,0-.81L83.14,74.79c0-.21.09-.42.13-.62s.1-.43.16-.68l.17-.72.16-.69c.06-.23.11-.45.16-.66s.1-.41.15-.64.11-.47.17-.73l.18-.82c.07-.28.12-.54.17-.77s.1-.49.16-.74.09-.48.11-.66a6,6,0,0,0,.06-.67A2.5,2.5,0,0,0,84.61,65a5.3,5.3,0,0,0-.36-.62c-.14-.19-.29-.38-.46-.59s-.34-.4-.52-.59l-.6-.59c-.23-.21-.45-.41-.67-.59s-.45-.37-.7-.56-.52-.37-.81-.57-.58-.37-.84-.53L78.94,60l-.76-.4-.77-.38-.76-.35-.92-.38c-.33-.13-.65-.26-1-.37s-.69-.24-1.11-.38l-1-.33-1-.29-1.12-.3-.9-.23-.74-.17L68,56.2,67.11,56l-.89-.16-1-.17-1-.14-.82-.11-.68-.09-.83-.09-1-.09-1-.07L59,55.05l-.8,0-.79,0-.78,0-.9,0-.91,0H53.63Z"/><path class="cls-4" d="M51.87,55.32q-11.7,0-19.25,2.49-7.27,2.53-6,6c1,2.33,4.61,4.31,10.71,6a85.75,85.75,0,0,0,21.14,2.46q11.7,0,19.25-2.49,7.27-2.52,6-6-1.56-3.48-10.7-6a85.75,85.75,0,0,0-21.15-2.47"/><path class="cls-5" d="M36.56,39.35l-9,9.42a5.06,5.06,0,0,0-1.27,1.65q-1.29,3.24-.12,13c.06,0,.28-.22.67-.71,1.44-1.89,2.52-3.26,3.26-4.11q.66-.81,3-3.47L44.82,42.9l-8.25-3.55"/><path class="cls-5" d="M50.22,44.25q-2.59,2.88-4.55,4.86-1.16,1.23-5.9,5.72-1.27,1.26-3.2,3.31L25.72,70.73c-.37.68-.35,1.84,0,3.48l2.09,7,.45,1.34a.26.26,0,0,0,.2.19,1.07,1.07,0,0,0,.72-.28c.73-.6,1.41-1.22,2-1.84l8.54-9.12q19-20.89,21.86-24.44l-11.4-2.83"/><path class="cls-6" d="M83.8,103.86H81.39l-.75,0-.91,0-.64,0-.59,0-.7,0-.7,0-1,.08-1,.09-.8.09-1.14.14-1.13.16-.85.14-1.4.26-1.61.32-1.25.28-1.22.29-1.24.3-1.36.35-1.27.33-1.2.35q-.63.18-1.23.39l-1.14.39-1.07.4c-.36.13-.69.26-1,.39s-.62.25-.93.39l-.93.44-.9.45-1,.54-.84.46-.45.26-.42.25-.43.26-.37.24-.36.24-.49.35-.48.37a4.08,4.08,0,0,0-.39.31c-.13.1-.25.21-.38.33s-.23.22-.33.33a.52.52,0,0,0-.17.3c0,.07.09.14.28.21l.3.1c.4.11.83.21,1.29.29s.93.14,1.39.18.92.06,1.35.07.84,0,1.26,0,.83,0,1.25-.09.84-.09,1.28-.16l1.31-.2,1.22-.2c.37-.06.78-.14,1.22-.24s.88-.19,1.31-.3l1.34-.35q.69-.18,1.26-.36l1.2-.36,1.58-.48,1.45-.45,1.07-.34c.38-.11.91-.29,1.62-.53l1.5-.51.79-.28.71-.25,1.27-.45,1.26-.45.81-.3,1.36-.51,1.25-.48.56-.22.69-.29.7-.31.23-.11,2.46-3.08Z"/><path class="cls-6" d="M83.63,104a7.44,7.44,0,0,0-1.22-.36,11.52,11.52,0,0,0-1.63-.27c-.51,0-1-.06-1.52-.06s-1,0-1.53.06-1,.08-1.6.14-1.37.2-2.42.4-1.83.37-2.34.49l-1.51.36-1.47.38-2,.53-1.88.51-1.16.32-1.08.3c-.35.1-.85.25-1.5.46l-1.4.44-.84.29-1.26.44c-.56.2-1.06.39-1.51.57l-1.16.45-1,.39-1,.43-.93.41L51,111l-.94.39-.91.39-.48.21-.59.27-.71.35-.53.27-.46.27-.48.28-.39.27-.36.28c-.11.09-.24.21-.38.35a.38.38,0,0,0-.1.46,1,1,0,0,0,.55.43l.28.11.67.23a7.09,7.09,0,0,0,1.1.26,11.09,11.09,0,0,0,1.27.15c.46,0,1,0,1.55,0s1.1,0,1.58-.06.87-.08,1.2-.13.62-.08.88-.13l.56-.09,8.9-.4,1-.27c.46-.12,1.06-.29,1.82-.52s1.45-.44,2.08-.65l1.82-.65,1.67-.65,1.5-.62,1.42-.62,1.25-.57L77,110l1.22-.58,1.06-.53.9-.47.74-.38.64-.34.56-.31c.17-.1.38-.23.63-.4s.44-.3.58-.41l.38-.31.39-.36c.14-.14.27-.26.38-.39l.3-.35c.09-.1.16-.2.23-.29s0-.21-.25-.36a6.89,6.89,0,0,0-.92-.48Z"/><path class="cls-4" d="M85.15,102.59c-1.83-.65-5.23-.56-10.22.3a97,97,0,0,0-15.57,4.23,51.25,51.25,0,0,0-11.84,5.72c-2.43,1.83-2.82,3.11-1.15,3.82s5.21.57,10.2-.28a96.79,96.79,0,0,0,15.52-4.21A51.94,51.94,0,0,0,84,106.46q3.69-2.73,1.23-3.85"/><path class="cls-4" d="M83.4,104.16Q81,103,74.12,103.67a84.06,84.06,0,0,0-14.51,3,46.54,46.54,0,0,0-11.39,4.74q-3.61,2.4-1.51,3.69,2.37,1.2,9.25.51a84.2,84.2,0,0,0,14.53-3,46.81,46.81,0,0,0,11.4-4.74c2.44-1.62,2.94-2.86,1.52-3.71"/><path class="cls-7" d="M88.85,45.59l-12,.22L75.69,47.7q-.63,1-2,3.15c-.91,1.41-1.62,2.48-2.11,3.21l-1.5,2.19L68.58,58.4c-.49.7-1.23,1.78-2.23,3.24s-1.73,2.54-2.21,3.27L62.73,67c-.45.69-.87,1.33-1.24,1.91s-.94,1.44-1.68,2.58-1.32,2-1.73,2.66l-1.3,2-1.27,1.93L53.58,81c-.89,1.33-1.51,2.27-1.88,2.8l-1,1.51-1.48,2.16-1.52,2.22c-.36.51-.68,1-1,1.41l-1.24,1.81L44.24,94.7l-.75,1.09L42.68,97c-.32.49-.61.92-.85,1.3s-.47.74-.68,1.09l-.55.88-.47.79c-.17.29-.34.59-.53.9a2.07,2.07,0,0,0-.22,1.24,5.84,5.84,0,0,0,.24,1.4c.13.41.28.85.46,1.31s.44,1,.77,1.71.58,1.18.75,1.49.3.57.43.79l.43.72a.32.32,0,0,0,.27.13,4.51,4.51,0,0,0,1.66-.52,22.09,22.09,0,0,0,2.69-1.4q1-.63,1.8-1.2c.53-.38,1-.75,1.46-1.11s1.09-.92,1.93-1.69,1.49-1.4,1.95-1.87,1-1,1.5-1.58,1.2-1.37,2-2.38,1.49-1.86,2-2.55,1-1.31,1.43-1.87.87-1.13,1.32-1.73,1.11-1.46,2-2.58,1.51-2,2-2.57l1.23-1.61,1.38-1.86,1.49-2,1.32-1.84q.67-.94,1.29-1.86c.41-.6.83-1.24,1.26-1.9l1.24-1.94c.39-.62.74-1.18,1.06-1.67l1.07-1.67.93-1.49.75-1.23,1.1-1.8,1.19-2,.85-1.42c.24-.41.49-.83.74-1.28l.72-1.28.74-1.38.68-1.25.59-1.06.59-1,.55-.95c.19-.33.38-.66.56-1l.5-.91.5-1c.19-.37.35-.7.49-1a7.74,7.74,0,0,0,.35-.82,2.25,2.25,0,0,0,.15-.82,7.28,7.28,0,0,0-.06-.9,9,9,0,0,0-.16-.93,9.84,9.84,0,0,0-.25-1c-.1-.34-.2-.65-.3-.92Z"/><path class="cls-8" d="M88.89,43.6l-10,.39L50.58,80.18Q43.77,89.42,37.06,98l-1.39,1.94a1.17,1.17,0,0,0-.17.71,17.33,17.33,0,0,0,2.36,4.88l2.28,3.26a.79.79,0,0,0,.75.33q5.41-2.27,12.37-9.65a102.44,102.44,0,0,0,7.65-9.14l9.43-12.47L84.81,58.12c.82-1.31,1.83-3,3-5.06a8.68,8.68,0,0,0,.64-1.62,25.14,25.14,0,0,0,.43-7.76"/><path class="cls-9" d="M47.1,26.8c2.18,0,4.51.09,7,.29a98.25,98.25,0,0,1,21,4q9.92,3.23,13.56,7h0a3.19,3.19,0,0,1,1,1.63h0l-.41,1.4h0c-.68.83-2.16,1.57-4.42,2.22A47.12,47.12,0,0,1,72.9,44.68c-2.17,0-4.5-.1-7-.29a98.48,98.48,0,0,1-21-4q-9.91-3.24-13.58-7Q28,30.18,35.08,28.13A47.43,47.43,0,0,1,47.1,26.8ZM28.89,36h0q4.83,4.92,17.41,8.54A101.2,101.2,0,0,0,73,48.3q9.55,0,14.83-2.13h0q-1.07,4.09-3.37,14.47a113.54,113.54,0,0,0-2,16.47,81.37,81.37,0,0,0,0,10.63q.41,6.29,1.45,13.45h0a22.41,22.41,0,0,0-4.06-.33h-.08a73.56,73.56,0,0,0-17.35,2.64q-9.84,2.63-15.33,5.94a14,14,0,0,0-2.85,2.22h0A58.18,58.18,0,0,1,37,101.18a71.2,71.2,0,0,1-7.29-18.31,113.46,113.46,0,0,1-3-28.79,114.1,114.1,0,0,1,1.17-13.14c.12-.77.44-2.41,1-4.93ZM80,104.48a17.87,17.87,0,0,1,3.36.26,3.29,3.29,0,0,1,.94.3l-.25.29q-2.48,2.3-9.74,4.93a78,78,0,0,1-23.39,4.57h0a17.09,17.09,0,0,1-3.35-.26,3.66,3.66,0,0,1-1-.3l.25-.29q2.47-2.3,9.73-4.93A78,78,0,0,1,80,104.48ZM47,23.18q-11.64,0-17,3.13h0A9.44,9.44,0,0,0,28.27,28a10.73,10.73,0,0,0-1.54,2.45,12,12,0,0,0-.65,1.74h0q-.87,3.28-1.67,7.76a112.69,112.69,0,0,0-1.3,13.93,116.64,116.64,0,0,0,3.12,30A77.43,77.43,0,0,0,36.93,108a52.1,52.1,0,0,0,4.74,6.3h0c.43.51.89,1,1.36,1.58h0c.19.18.41.37.66.58a6.9,6.9,0,0,0,1.1.83,6.56,6.56,0,0,0,1.08.48h0a17.94,17.94,0,0,0,5.28.64,73.19,73.19,0,0,0,17.37-2.62q9.84-2.61,15.34-5.93a17.06,17.06,0,0,0,1.6-1.08h0c.16-.15.35-.36.6-.62.41-.46.68-.79.83-1a6.14,6.14,0,0,0,.77-1.47,4,4,0,0,0,.19-1.47,6.64,6.64,0,0,0,0-.77l-.23-1.42h0c0-.21-.06-.4-.08-.56q-.87-6.19-1.16-9.37c-.31-3.27-.48-5.78-.52-7.51q-.07-3.28.14-7.29a115.09,115.09,0,0,1,1.79-15.07q3-13.45,3.4-14.77l1.45-5h0q1.77-3.06-1.32-6.77l0,0c-.11-.12-.22-.24-.34-.35h0q-4.89-4.86-17.37-8.44A101.5,101.5,0,0,0,47,23.18Z"/><path class="cls-3" d="M58.57,18.8h-.14l-.3,0-.27.05-.26.05-.27.06a1.49,1.49,0,0,0-.25.07l-.22.07-.28.09-.27.1-.21.09-.23.11-.26.14-.24.15-.22.15-.25.17-.2.16-.19.15-.21.18-.19.18L54,21l-.17.19-.17.2-.15.2-.16.21-.17.26a2.38,2.38,0,0,0-.18.3,1.82,1.82,0,0,0-.15.27l-.14.25c-.05.09-.09.18-.13.27s-.09.19-.13.29-.08.19-.1.26-.05.13-.08.19,0,.17-.1.31-.08.25-.1.32l-.06.23c0,.08,0,.16-.06.26l-.06.28c0,.1,0,.22-.06.34a2.86,2.86,0,0,0,0,.32l0,.22a1.8,1.8,0,0,0,0,.22,1.5,1.5,0,0,0,0,.22c0,.08,0,.16,0,.25a2.53,2.53,0,0,0,0,.28,2.36,2.36,0,0,0,0,.25v.48c0,.09,0,.19,0,.27s0,.17,0,.25,0,.16,0,.24l0,.24a2.34,2.34,0,0,1,0,.26c0,.09,0,.19.06.31s0,.21.06.29.05.18.08.31.06.22.08.31,0,.16.08.24,0,.15.08.23a1.61,1.61,0,0,0,.09.26c0,.09.07.17.09.24l.09.2c0,.07.06.15.1.23s.08.17.11.25l.12.24a2.39,2.39,0,0,0,.12.22,2,2,0,0,0,.11.21l.11.19.14.24a2.94,2.94,0,0,0,.17.26l.14.22c0,.07.1.14.16.23a2.5,2.5,0,0,0,.18.24l.14.2.14.18.17.21.18.22.16.19.16.18.15.17.16.17.19.21.19.2.18.18.18.17.17.17.17.17.19.17.19.18.19.17.2.17.19.17.18.15.17.14.16.13.17.14.18.14.17.14.16.13.18.14.19.14.17.14.17.12.16.13.17.13.17.12.09.06.66.22c0-.1,0-.19.06-.26s0-.16,0-.26,0-.19.07-.29,0-.19.05-.26l.06-.25c0-.09.05-.19.08-.29s0-.19.07-.27l.06-.25a1.82,1.82,0,0,0,.07-.25c0-.09.05-.17.07-.24s.05-.15.08-.24.06-.19.1-.29a2.3,2.3,0,0,1,.09-.25c0-.07,0-.14.07-.21a1.19,1.19,0,0,0,.08-.2l.1-.22.09-.22.1-.24c0-.08.08-.18.13-.27l.11-.23.1-.2a2.12,2.12,0,0,0,.11-.21,2.12,2.12,0,0,0,.11-.21l.12-.22c0-.07.07-.14.11-.2l.11-.22a2.6,2.6,0,0,0,.13-.24l.14-.24.12-.21a1.42,1.42,0,0,1,.11-.18l.11-.19.11-.18.12-.21.12-.22.12-.21a1.71,1.71,0,0,0,.13-.23l.14-.24.12-.22.12-.21.12-.21a2.42,2.42,0,0,0,.12-.23c0-.08.08-.16.12-.23s.07-.13.1-.19.06-.13.09-.21l.1-.21.09-.2.1-.24c0-.1.06-.18.09-.26l.08-.21.06-.19c0-.07,0-.14.07-.22s0-.16.07-.25l.06-.25a1.6,1.6,0,0,0,0-.21,1.77,1.77,0,0,1,0-.2l0-.22a.89.89,0,0,0,0-.22l0-.21c0-.07,0-.13,0-.21a1.48,1.48,0,0,0,0-.21v-.26c0-.09,0-.19,0-.29s0-.2,0-.28a2.51,2.51,0,0,0,0-.27l0-.25c0-.08,0-.16,0-.24s0-.16-.06-.26,0-.18-.06-.26,0-.16-.07-.24,0-.16-.08-.23,0-.14-.07-.21l-.09-.21-.09-.2a2,2,0,0,0-.1-.21l-.12-.23-.14-.24-.17-.27-.16-.25-.16-.21-.16-.2a1.57,1.57,0,0,0-.15-.19l-.15-.16a1.06,1.06,0,0,0-.15-.15l-.16-.15a1.07,1.07,0,0,0-.16-.14l-.16-.14-.22-.17A2.48,2.48,0,0,0,62.6,20l-.27-.18-.26-.16-.24-.13a1.33,1.33,0,0,0-.24-.11l-.26-.12-.27-.1-.27-.09L60.52,19l-.26-.06L60,18.87l-.27,0-.26,0-.26,0h-.65Z"/><path class="cls-3" d="M89.46,14.18a6.26,6.26,0,0,0-5.36-1.52A11.1,11.1,0,0,0,78,16.07a21.24,21.24,0,0,0-4.25,7.23c-1.85,5.25-2.86,9-3,11.34a24.76,24.76,0,0,1,9.47-4.46A16.46,16.46,0,0,1,84.56,30c.68.07,1.43.18,2.28.35,2.57.66,4.11,1,4.62,1.07a12,12,0,0,0,2.6.19,7.45,7.45,0,0,0,5.24-2.19q2.34-2.55.48-6a5,5,0,0,0-2-1.78,19.72,19.72,0,0,0-3.59-1.42,3.79,3.79,0,0,1-.88-.48,2.26,2.26,0,0,1-.46-.61A26.58,26.58,0,0,0,91.11,16a9.75,9.75,0,0,0-1.64-1.79"/><path class="cls-3" d="M105.71,39.17q-3.37-4.29-9.57-4.25a16.64,16.64,0,0,0-5.76,1.31A20.55,20.55,0,0,0,88,37.31a39.89,39.89,0,0,0-3.43,2.19l-.78.32a10,10,0,0,1,5.62,2.55,9,9,0,0,1,1.43,1.85c.17.22.76,1.39,1.77,3.5a9.41,9.41,0,0,0,.66,1.1A8,8,0,0,0,95.17,51a8.08,8.08,0,0,0,5.43,1.74q4.79-.24,6.89-5a7.46,7.46,0,0,0,.2-4.39,10,10,0,0,0-2-4.14"/><path class="cls-10" d="M51,80.61a3.06,3.06,0,0,0-2.28,1.53,5.47,5.47,0,0,0,.62,6.29A2.89,2.89,0,0,0,54.16,88a5.48,5.48,0,0,0-.61-6.28A3.07,3.07,0,0,0,51,80.61"/><path class="cls-3" d="M52.35,82a.89.89,0,0,0-.66.56,2.21,2.21,0,0,0-.16,1.19A2.3,2.3,0,0,0,52,84.84a1,1,0,0,0,.79.4.89.89,0,0,0,.66-.56,2.39,2.39,0,0,0-.28-2.31.92.92,0,0,0-.78-.4"/><path class="cls-10" d="M68.55,78.13a3.06,3.06,0,0,0-2.27,1.53A5.45,5.45,0,0,0,66.89,86,3.07,3.07,0,0,0,69.43,87a3,3,0,0,0,2.27-1.54,5.46,5.46,0,0,0-.61-6.27,3.06,3.06,0,0,0-2.53-1.07"/><path class="cls-3" d="M69.9,79.5a.9.9,0,0,0-.67.55,2.32,2.32,0,0,0-.16,1.19,2.22,2.22,0,0,0,.45,1.12A.79.79,0,0,0,71,82.2,2.21,2.21,0,0,0,71.13,81a2.26,2.26,0,0,0-.44-1.11.9.9,0,0,0-.79-.4"/><path class="cls-10" d="M64.08,88.55c-.63,0-1.25.09-1.88.16-.41,0-1.1.14-2.08.28L59,89.17h0a.53.53,0,0,0-.29.28,1.27,1.27,0,0,0-.09.56,3.22,3.22,0,0,0,0,.37,3.19,3.19,0,0,0,.09.31h0l0,.06a5,5,0,0,0,.79,1.63,2.7,2.7,0,0,0,2.18,1.09l.29,0a3,3,0,0,0,2.19-1.7,5.6,5.6,0,0,0,.49-1.64,7,7,0,0,0,.07-.88h0a.75.75,0,0,0-.11-.38.61.61,0,0,0-.39-.26.4.4,0,0,0-.15,0Z"/><path class="cls-11" d="M75.5,86.07a3.26,3.26,0,0,0-3.8.75,2,2,0,0,0-.48,1.67,2,2,0,0,0,1.08,1.34,3.25,3.25,0,0,0,3.81-.74,1.88,1.88,0,0,0-.6-3"/><path class="cls-11" d="M47.12,91a3,3,0,0,1,1.74-1,3.11,3.11,0,0,1,2,.23,1.83,1.83,0,0,1,.6,2.95,3.18,3.18,0,0,1-3.73.78,1.84,1.84,0,0,1-.61-3"/><path class="cls-12" d="M61.34,90.51a1.94,1.94,0,0,0-1,.66,1,1,0,0,0-.19,1,1.22,1.22,0,0,0,.75.7,2.07,2.07,0,0,0,1.26,0,1.83,1.83,0,0,0,1-.66,1,1,0,0,0,.19-1,1.18,1.18,0,0,0-.75-.71,2.2,2.2,0,0,0-1.25,0"/></g></g></svg>