<?xml version="1.0" encoding="utf-8"?>
<!-- Generator: Adobe Illustrator 23.0.1, SVG Export Plug-In . SVG Version: 6.00 Build 0)  -->
<svg version="1.1" id="Calque_1" xmlns="http://www.w3.org/2000/svg" xmlns:xlink="http://www.w3.org/1999/xlink" x="0px" y="0px"
	 viewBox="0 0 511 131" style="enable-background:new 0 0 511 131;" xml:space="preserve">
<style type="text/css">
	.st0{fill:#4E5E6E;}
	.st1{fill:#B7EAFF;}
	.st2{fill:#FFFFFF;fill-opacity:6.274510e-02;}
	.st3{fill:#FFFFFF;}
	.st4{fill:#F1F6F8;}
	.st5{fill:#FFFFFF;fill-opacity:0.451;}
	.st6{fill:#F1F6F8;fill-opacity:0.451;}
	.st7{fill:#FFFFFF;fill-opacity:0.2039;}
	.st8{fill:#FFFFFF;fill-opacity:0.3333;}
	.st9{fill:#5DC4D9;}
	.st10{fill:#FEA192;}
	.st11{fill:#FF738E;}
</style>
<g>
	<path class="st0" d="M211.4,37.9v50.8h-14.1v-28l-9.6,28h-11.8l-9.6-28.2v28.2h-14.1V37.9h17.1l12.7,33l12.5-33H211.4z"/>
	<path class="st0" d="M220.5,42.5c-1.5-1.4-2.3-3.1-2.3-5.1c0-2.1,0.8-3.9,2.3-5.3c1.5-1.4,3.5-2.1,6-2.1c2.4,0,4.4,0.7,5.9,2.1
		c1.5,1.4,2.3,3.1,2.3,5.3c0,2.1-0.8,3.8-2.3,5.1c-1.5,1.4-3.5,2.1-5.9,2.1C224.1,44.6,222,43.9,220.5,42.5z M233.5,48.3v40.4h-14.1
		V48.3H233.5z"/>
	<path class="st0" d="M255.7,35.4v53.3h-14.1V35.4H255.7z"/>
	<path class="st0" d="M289,88.7l-11.2-16.6v16.6h-14.1V35.4h14.1v28.7L289,48.3H306l-15.9,20.3l16.2,20.1H289z"/>
	<path class="st0" d="M315,85c-3.8-2.8-5.8-6.8-6.1-12.1h15c0.1,1.8,0.7,3.1,1.6,3.9c0.9,0.8,2.1,1.2,3.5,1.2c1.3,0,2.4-0.3,3.2-1
		c0.8-0.6,1.3-1.5,1.3-2.7c0-1.5-0.7-2.6-2.1-3.5c-1.4-0.8-3.6-1.7-6.8-2.7c-3.3-1.1-6-2.2-8-3.2c-2-1-3.8-2.5-5.3-4.5
		c-1.5-2-2.3-4.6-2.3-7.8c0-3.3,0.8-6.1,2.4-8.4c1.6-2.3,3.9-4.1,6.8-5.3c2.9-1.2,6.1-1.8,9.8-1.8c5.9,0,10.6,1.4,14.1,4.1
		c3.5,2.8,5.4,6.6,5.7,11.6h-15.3c0-1.5-0.5-2.7-1.4-3.5c-0.9-0.8-2-1.2-3.4-1.2c-1.1,0-1.9,0.3-2.6,0.9c-0.7,0.6-1,1.5-1,2.7
		c0,1,0.4,1.8,1.1,2.5c0.7,0.7,1.7,1.3,2.8,1.8c1.1,0.5,2.7,1.1,4.9,1.9c3.2,1.1,5.9,2.2,8,3.3c2.1,1.1,3.9,2.6,5.4,4.5
		c1.5,1.9,2.3,4.4,2.3,7.4c0,3-0.8,5.7-2.3,8.1c-1.5,2.4-3.7,4.3-6.6,5.7c-2.9,1.4-6.2,2.1-10.1,2.1C323.6,89.2,318.8,87.8,315,85z"
		/>
	<path class="st0" d="M414.7,48.3l-10.3,40.4h-15.8l-5.6-24.5l-5.8,24.5h-15.8l-10.2-40.4h14l4.5,26.8l6-26.8h15.1l6.2,26.9
		l4.5-26.9H414.7z"/>
	<path class="st0" d="M418.7,57.5c1.5-3.1,3.6-5.5,6.2-7.2c2.6-1.7,5.5-2.5,8.7-2.5c2.8,0,5.2,0.6,7.2,1.7c2,1.1,3.6,2.6,4.7,4.5
		v-5.6h14.1v40.4h-14.1v-5.6c-1.1,1.9-2.7,3.4-4.7,4.5c-2,1.1-4.4,1.7-7.2,1.7c-3.2,0-6.1-0.8-8.7-2.5c-2.6-1.7-4.7-4.1-6.2-7.2
		c-1.5-3.1-2.3-6.8-2.3-11C416.4,64.3,417.2,60.6,418.7,57.5z M443.4,62.3c-1.4-1.5-3.2-2.2-5.2-2.2c-2.1,0-3.9,0.7-5.3,2.2
		c-1.4,1.5-2.1,3.5-2.1,6.2c0,2.6,0.7,4.6,2.1,6.2c1.4,1.5,3.1,2.3,5.3,2.3c2.1,0,3.8-0.7,5.2-2.2c1.4-1.5,2.1-3.6,2.1-6.2
		C445.5,65.9,444.8,63.8,443.4,62.3z"/>
	<path class="st0" d="M486.5,49.5c2-1.1,4.4-1.7,7.1-1.7c3.2,0,6.1,0.8,8.7,2.5c2.6,1.7,4.7,4.1,6.2,7.2c1.5,3.1,2.3,6.8,2.3,10.9
		c0,4.2-0.8,7.8-2.3,11c-1.5,3.1-3.6,5.6-6.2,7.2c-2.6,1.7-5.5,2.5-8.7,2.5c-2.7,0-5.1-0.6-7.1-1.7c-2-1.1-3.6-2.6-4.7-4.5V108
		h-14.1V48.3h14.1v5.6C482.9,52,484.4,50.6,486.5,49.5z M494.3,62.3c-1.4-1.5-3.2-2.2-5.2-2.2c-2.1,0-3.8,0.7-5.2,2.2
		c-1.4,1.5-2.1,3.5-2.1,6.1c0,2.6,0.7,4.7,2.1,6.2c1.4,1.5,3.2,2.2,5.2,2.2c2.1,0,3.8-0.8,5.2-2.3c1.4-1.5,2.1-3.6,2.1-6.2
		C496.5,65.8,495.8,63.8,494.3,62.3z"/>
</g>
<circle class="st1" cx="65.5" cy="66" r="65.5"/>
<g>
	<g>
		<path class="st2" d="M47.3,24.7c-6.7,0.1-11.8,0.9-15.1,2.5c-2.4,1.7-4,5.2-5,10.6c-1.3,7.4-1.2,18.5,0.2,33.1
			c0.5,8.1,2.5,17.2,6,27.4L85,79.8c0.2-6.9,0.6-13,1.4-18.5c0.3-2.2,0.5-3.6,0.7-4.4c2-7.6,3-12.1,3-13.5c0.3-2.7-0.2-4.9-1.5-6.6
			c-2.9-3.8-7.7-6.6-14.5-8.4C66.6,26.1,57.6,24.9,47.3,24.7"/>
	</g>
	<g>
		<path class="st3" d="M53.6,55.4c-0.2,0-0.3,0-0.5,0c-0.2,0-0.5,0-0.9,0c-0.4,0-0.7,0-1,0c-0.3,0-0.6,0-0.9,0c-0.3,0-0.6,0-0.9,0
			c-0.3,0-0.5,0-0.7,0c-0.2,0-0.4,0-0.6,0.1c-0.2,0-0.5,0-0.7,0.1c-0.2,0-0.5,0-0.7,0.1c-0.2,0-0.5,0.1-0.8,0.1
			c-0.3,0-0.6,0.1-0.8,0.1c-0.2,0-0.5,0.1-0.7,0.1c-0.2,0-0.4,0.1-0.6,0.1c-0.2,0-0.4,0.1-0.7,0.1c-0.2,0-0.6,0.1-0.9,0.2
			c-0.4,0.1-0.7,0.2-1,0.2c-0.3,0.1-0.6,0.2-0.9,0.2c-0.3,0.1-0.5,0.1-0.7,0.2c-0.2,0.1-0.5,0.1-0.8,0.2c-0.3,0.1-0.5,0.2-0.7,0.2
			c-0.2,0.1-0.4,0.1-0.6,0.2c-0.2,0.1-0.4,0.1-0.6,0.2c-0.2,0.1-0.4,0.2-0.6,0.2c-0.2,0.1-0.5,0.2-0.7,0.3s-0.4,0.2-0.6,0.3
			S34.3,59,34,59.1c-0.3,0.1-0.5,0.3-0.7,0.4c-0.2,0.1-0.5,0.3-0.7,0.4c-0.2,0.1-0.4,0.3-0.6,0.4c-0.2,0.1-0.4,0.3-0.6,0.4
			c-0.2,0.1-0.4,0.3-0.6,0.4c-0.2,0.2-0.5,0.3-0.7,0.5c-0.2,0.2-0.4,0.3-0.6,0.5c-0.2,0.1-0.3,0.3-0.5,0.5c-0.2,0.2-0.3,0.3-0.5,0.4
			c-0.1,0.1-0.3,0.3-0.4,0.4c-0.1,0.1-0.3,0.3-0.4,0.4c-0.1,0.2-0.3,0.3-0.4,0.5c-0.1,0.2-0.3,0.4-0.3,0.6c-0.1,0.2-0.2,0.4-0.3,0.6
			c-0.1,0.2-0.1,0.4-0.2,0.7c-0.1,0.2-0.1,0.5-0.1,0.7c0,0.2-0.1,0.4-0.1,0.7c0,0.3,0,0.5,0,0.7c0,0.2,0,0.5,0,0.7
			c0,0.2,0,0.5,0,0.7c0,0.2,0,0.4,0,0.6c0,0.2,0,0.4,0.1,0.6c0,0.2,0,0.4,0.1,0.6s0.1,0.5,0.1,0.8c0,0.3,0.1,0.6,0.1,0.8
			c0,0.3,0.1,0.5,0.1,0.7c0,0.2,0.1,0.5,0.2,0.8s0.1,0.6,0.2,0.9c0.1,0.3,0.1,0.5,0.2,0.7c0,0.2,0.1,0.4,0.1,0.7s0.1,0.5,0.2,0.8
			c0.1,0.3,0.1,0.5,0.2,0.7c0,0.2,0.1,0.4,0.1,0.6c0,0.2,0.1,0.5,0.2,0.8s0.1,0.6,0.2,0.9s0.1,0.6,0.2,0.8c0.1,0.2,0.1,0.5,0.1,0.7
			c0,0.2,0.1,0.4,0.1,0.6c0,0.2,0.1,0.4,0.1,0.7c0.1,0.3,0.1,0.5,0.2,0.7c0,0.2,0.1,0.5,0.2,0.8c0.1,0.3,0.1,0.6,0.2,0.9
			c0.1,0.3,0.1,0.6,0.2,0.8c0.1,0.2,0.1,0.5,0.2,0.7c0.1,0.2,0.1,0.5,0.2,0.7c0,0.2,0.1,0.5,0.1,0.7c0,0.2,0.1,0.5,0.1,0.7
			c0.1,0.2,0.1,0.5,0.2,0.8c0.1,0.3,0.1,0.6,0.2,0.9c0.1,0.3,0.1,0.6,0.2,0.9c0.1,0.2,0.1,0.5,0.2,0.8c0.1,0.3,0.1,0.5,0.2,0.8
			c0.1,0.3,0.1,0.5,0.2,0.7c0.1,0.2,0.1,0.4,0.2,0.7c0.1,0.2,0.1,0.4,0.2,0.7c0.1,0.3,0.2,0.5,0.3,0.9c0.1,0.3,0.2,0.6,0.3,0.8
			c0.1,0.2,0.1,0.4,0.2,0.6c0.1,0.2,0.2,0.5,0.3,0.7c0.1,0.3,0.2,0.5,0.3,0.8c0.1,0.3,0.2,0.5,0.3,0.7c0.1,0.2,0.2,0.5,0.4,0.8
			c0.1,0.3,0.3,0.6,0.4,0.8c0.1,0.2,0.2,0.5,0.4,0.7c0.1,0.3,0.3,0.5,0.4,0.8c0.1,0.3,0.3,0.5,0.4,0.7c0.1,0.2,0.3,0.5,0.4,0.7
			c0.1,0.2,0.3,0.4,0.4,0.6c0.1,0.2,0.3,0.4,0.4,0.6c0.1,0.2,0.3,0.4,0.4,0.6c0.1,0.2,0.3,0.4,0.5,0.6c0.2,0.2,0.3,0.5,0.5,0.7
			c0.2,0.2,0.3,0.5,0.5,0.7c0.2,0.2,0.3,0.4,0.4,0.6s0.3,0.4,0.4,0.5c0.2,0.2,0.3,0.4,0.5,0.6c0.2,0.2,0.4,0.4,0.5,0.5
			c0.1,0.1,0.3,0.3,0.5,0.5c0.2,0.2,0.3,0.4,0.5,0.5c0.1,0.1,0.3,0.3,0.5,0.5c0.2,0.2,0.3,0.3,0.5,0.5c0.2,0.2,0.4,0.4,0.5,0.5
			c0.2,0.1,0.3,0.3,0.5,0.5c0.2,0.2,0.4,0.3,0.6,0.5c0.2,0.1,0.4,0.3,0.5,0.4c0.2,0.1,0.4,0.3,0.6,0.4c0.2,0.2,0.5,0.3,0.7,0.4
			c0.2,0.1,0.4,0.2,0.6,0.3c0.2,0.1,0.4,0.2,0.6,0.3c0.2,0.1,0.5,0.2,0.8,0.3c0.3,0.1,0.5,0.2,0.7,0.2c0.2,0.1,0.4,0.1,0.7,0.2
			c0.3,0.1,0.5,0.1,0.8,0.2c0.2,0,0.5,0.1,0.8,0.1c0.3,0,0.6,0.1,0.8,0.1s0.6,0,0.9,0.1c0.3,0,0.6,0,0.8,0c0.2,0,0.4,0,0.7,0
			c0,0,0,0,0,0c0.2,0,0.5,0,0.7,0c0.2,0,0.5,0,0.7,0c0.3,0,0.5,0,0.7,0c0.2,0,0.5,0,0.7,0c0.2,0,0.5,0,0.7-0.1c0.2,0,0.4,0,0.6-0.1
			c0.2,0,0.4-0.1,0.7-0.1c0.2,0,0.5-0.1,0.7-0.1c0.2,0,0.5-0.1,0.7-0.1c0.2,0,0.5-0.1,0.7-0.1c0.3,0,0.5-0.1,0.7-0.1
			c0.2,0,0.4-0.1,0.7-0.1c0.2,0,0.5-0.1,0.8-0.2c0.3-0.1,0.6-0.1,0.9-0.2c0.3-0.1,0.6-0.1,0.8-0.2c0.2-0.1,0.5-0.1,0.7-0.2
			c0.2-0.1,0.5-0.1,0.7-0.2s0.4-0.1,0.6-0.1c0.2-0.1,0.4-0.1,0.7-0.2c0.3-0.1,0.5-0.1,0.8-0.2c0.3-0.1,0.5-0.1,0.8-0.2
			c0.3-0.1,0.5-0.1,0.7-0.2c0.2-0.1,0.5-0.1,0.7-0.2c0.2-0.1,0.4-0.1,0.6-0.2c0.2-0.1,0.4-0.1,0.6-0.2c0.2-0.1,0.4-0.1,0.7-0.2
			c0.2-0.1,0.4-0.1,0.7-0.2c0.2-0.1,0.5-0.2,0.8-0.2c0.3-0.1,0.5-0.2,0.8-0.2c0.3-0.1,0.5-0.2,0.8-0.2c0.3-0.1,0.5-0.2,0.8-0.3
			c0.3-0.1,0.5-0.2,0.8-0.3c0.3-0.1,0.5-0.2,0.7-0.3c0.2-0.1,0.4-0.2,0.6-0.2c0.2-0.1,0.4-0.2,0.7-0.3c0.3-0.1,0.6-0.2,0.9-0.3
			c0.3-0.1,0.6-0.2,0.8-0.3c0.2-0.1,0.4-0.2,0.7-0.3c0.3-0.1,0.5-0.3,0.7-0.4c0.2-0.1,0.5-0.3,0.7-0.4c0.2-0.1,0.4-0.3,0.7-0.5
			c0.2-0.2,0.5-0.3,0.6-0.5c0.2-0.1,0.3-0.3,0.5-0.5s0.3-0.4,0.4-0.6s0.2-0.4,0.2-0.6c0.1-0.2,0.1-0.4,0.2-0.6
			c0-0.2,0.1-0.4,0.1-0.7c0-0.2,0.1-0.5,0.1-0.8c0-0.3,0.1-0.6,0.1-0.9c0-0.3,0.1-0.5,0.1-0.8c0-0.2,0-0.6,0.1-1
			c0-0.4,0-0.9,0.1-1.2s0-0.7,0-1c0-0.3,0-0.6,0-1.1c0-0.4,0-0.8,0-1.3c0-0.4,0-0.8,0-1.3c0-0.4,0-0.8,0-1c0-0.2,0-0.6,0-0.9
			c0-0.4,0-0.8,0-1.2c0-0.4,0-0.9,0-1.3c0-0.4,0-0.8,0-1.1c0-0.3,0-0.7,0-1.1s0-0.8,0-1.2c0-0.4,0-0.8,0-1c0-0.2,0-0.5,0-0.9
			c0-0.4,0-0.7,0-1c0-0.3,0-0.6,0-0.8l-2.6-10.1c0-0.2,0.1-0.4,0.1-0.6c0-0.2,0.1-0.4,0.2-0.7c0.1-0.3,0.1-0.5,0.2-0.7
			c0.1-0.2,0.1-0.5,0.2-0.7c0.1-0.2,0.1-0.5,0.2-0.7c0-0.2,0.1-0.4,0.2-0.6c0.1-0.2,0.1-0.5,0.2-0.7c0.1-0.3,0.1-0.5,0.2-0.8
			c0.1-0.3,0.1-0.5,0.2-0.8c0.1-0.2,0.1-0.5,0.2-0.7c0.1-0.3,0.1-0.5,0.1-0.7c0-0.2,0-0.4,0.1-0.7c0-0.3,0-0.5-0.1-0.7
			c0-0.2-0.1-0.4-0.2-0.7c-0.1-0.2-0.2-0.4-0.4-0.6c-0.1-0.2-0.3-0.4-0.5-0.6c-0.2-0.2-0.3-0.4-0.5-0.6c-0.2-0.2-0.4-0.4-0.6-0.6
			c-0.2-0.2-0.4-0.4-0.7-0.6c-0.2-0.2-0.5-0.4-0.7-0.6c-0.2-0.2-0.5-0.4-0.8-0.6c-0.3-0.2-0.6-0.4-0.8-0.5c-0.3-0.2-0.5-0.3-0.7-0.4
			c-0.2-0.1-0.5-0.3-0.8-0.4c-0.3-0.2-0.6-0.3-0.8-0.4c-0.2-0.1-0.5-0.2-0.8-0.3c-0.3-0.1-0.6-0.3-0.9-0.4c-0.3-0.1-0.6-0.3-1-0.4
			c-0.3-0.1-0.7-0.2-1.1-0.4c-0.4-0.1-0.8-0.2-1-0.3s-0.6-0.2-1-0.3s-0.8-0.2-1.1-0.3c-0.3-0.1-0.6-0.2-0.9-0.2
			c-0.3-0.1-0.5-0.1-0.7-0.2c-0.2-0.1-0.5-0.1-0.9-0.2c-0.4-0.1-0.6-0.1-0.9-0.2c-0.2,0-0.5-0.1-0.9-0.2c-0.4-0.1-0.7-0.1-1-0.2
			s-0.6-0.1-1-0.1c-0.3,0-0.6-0.1-0.8-0.1c-0.2,0-0.5-0.1-0.7-0.1c-0.2,0-0.5-0.1-0.8-0.1c-0.3,0-0.7-0.1-1-0.1
			c-0.4,0-0.7-0.1-1-0.1c-0.3,0-0.6,0-0.8-0.1c-0.3,0-0.5,0-0.8,0c-0.3,0-0.5,0-0.8,0c-0.2,0-0.5,0-0.8,0c-0.3,0-0.6,0-0.9,0
			c-0.3,0-0.6,0-0.9,0c-0.3,0-0.6,0-0.9,0C53.8,55.4,53.7,55.4,53.6,55.4z"/>
	</g>
	<g>
		<path class="st4" d="M51.9,55.8c-7.8,0-14.2,0.9-19.2,2.5c-4.9,1.7-6.9,3.7-6,6c1,2.3,4.6,4.3,10.7,6c6.3,1.6,13.3,2.4,21.1,2.5
			c7.8,0,14.2-0.9,19.2-2.5c4.9-1.7,6.9-3.7,6-6c-1-2.3-4.6-4.3-10.7-6C66.7,56.7,59.7,55.8,51.9,55.8"/>
	</g>
	<g>
		<path class="st5" d="M36.6,39.9l-9,9.4c-0.8,0.8-1.2,1.4-1.3,1.6c-0.9,2.2-0.9,6.5-0.1,13c0.1,0,0.3-0.2,0.7-0.7
			c1.4-1.9,2.5-3.3,3.3-4.1c0.4-0.5,1.5-1.7,3-3.5l11.7-12.2L36.6,39.9"/>
	</g>
	<g>
		<path class="st5" d="M50.2,44.7c-1.7,1.9-3.2,3.5-4.6,4.9c-0.8,0.8-2.7,2.7-5.9,5.7c-0.9,0.8-1.9,1.9-3.2,3.3L25.7,71.2
			c-0.4,0.7-0.4,1.8,0,3.5l2.1,7l0.5,1.3c0,0.1,0.1,0.2,0.2,0.2c0.2,0,0.5-0.1,0.7-0.3c0.7-0.6,1.4-1.2,2-1.8l8.5-9.1
			C52.4,58.1,59.7,50,61.7,47.6L50.2,44.7"/>
	</g>
	<g>
		<path class="st6" d="M83.8,104.4c-0.1,0-0.3,0-0.5,0c-0.2,0-0.4,0-0.7,0c-0.3,0-0.6,0-0.7,0c-0.2,0-0.3,0-0.5,0
			c-0.2,0-0.4,0-0.7,0c-0.3,0-0.6,0-0.9,0c-0.3,0-0.5,0-0.6,0c-0.2,0-0.4,0-0.6,0c-0.2,0-0.5,0-0.7,0c-0.2,0-0.5,0-0.7,0
			c-0.2,0-0.6,0-1,0.1c-0.4,0-0.8,0.1-1,0.1c-0.2,0-0.5,0.1-0.8,0.1c-0.3,0-0.7,0.1-1.1,0.1c-0.5,0.1-0.9,0.1-1.1,0.2
			c-0.3,0-0.6,0.1-0.8,0.1c-0.3,0.1-0.8,0.1-1.4,0.3c-0.6,0.1-1.2,0.2-1.6,0.3c-0.4,0.1-0.8,0.2-1.3,0.3c-0.4,0.1-0.8,0.2-1.2,0.3
			c-0.4,0.1-0.8,0.2-1.2,0.3c-0.4,0.1-0.9,0.2-1.4,0.3c-0.5,0.1-0.9,0.2-1.3,0.3c-0.4,0.1-0.8,0.2-1.2,0.3c-0.4,0.1-0.8,0.3-1.2,0.4
			s-0.8,0.3-1.1,0.4c-0.4,0.1-0.7,0.3-1.1,0.4c-0.4,0.1-0.7,0.3-1,0.4c-0.3,0.1-0.6,0.3-0.9,0.4s-0.6,0.3-0.9,0.4
			c-0.3,0.1-0.6,0.3-0.9,0.4c-0.3,0.2-0.6,0.3-1,0.5c-0.4,0.2-0.7,0.4-0.8,0.5c-0.2,0.1-0.3,0.2-0.4,0.3c-0.1,0.1-0.3,0.2-0.4,0.3
			c-0.1,0.1-0.3,0.2-0.4,0.3c-0.1,0.1-0.3,0.2-0.4,0.2c-0.1,0.1-0.2,0.2-0.4,0.2s-0.3,0.2-0.5,0.3s-0.4,0.3-0.5,0.4
			c-0.1,0.1-0.3,0.2-0.4,0.3c-0.1,0.1-0.3,0.2-0.4,0.3c-0.1,0.1-0.2,0.2-0.3,0.3c-0.1,0.1-0.2,0.2-0.2,0.3c0,0.1,0.1,0.1,0.3,0.2
			c0.1,0,0.2,0.1,0.3,0.1c0.4,0.1,0.8,0.2,1.3,0.3c0.5,0.1,0.9,0.1,1.4,0.2c0.5,0,0.9,0.1,1.3,0.1c0.4,0,0.8,0,1.3,0
			c0.4,0,0.8,0,1.2-0.1c0.4,0,0.8-0.1,1.3-0.2c0.4-0.1,0.9-0.1,1.3-0.2c0.4-0.1,0.8-0.1,1.2-0.2c0.4-0.1,0.8-0.1,1.2-0.2
			c0.4-0.1,0.9-0.2,1.3-0.3c0.4-0.1,0.9-0.2,1.3-0.3c0.5-0.1,0.9-0.2,1.3-0.4c0.4-0.1,0.8-0.2,1.2-0.4c0.4-0.1,0.9-0.3,1.6-0.5
			c0.6-0.2,1.1-0.3,1.5-0.4c0.3-0.1,0.7-0.2,1.1-0.3s0.9-0.3,1.6-0.5c0.7-0.2,1.2-0.4,1.5-0.5c0.3-0.1,0.6-0.2,0.8-0.3
			c0.2-0.1,0.5-0.2,0.7-0.3c0.2-0.1,0.7-0.2,1.3-0.4c0.6-0.2,1-0.4,1.3-0.5c0.2-0.1,0.5-0.2,0.8-0.3c0.3-0.1,0.8-0.3,1.4-0.5
			c0.6-0.2,1-0.4,1.3-0.5c0.2-0.1,0.4-0.2,0.6-0.2c0.1-0.1,0.4-0.2,0.7-0.3s0.5-0.2,0.7-0.3l0.2-0.1L83.8,104.4L83.8,104.4z"/>
	</g>
	<g>
		<path class="st6" d="M83.6,104.5c-0.3-0.1-0.7-0.3-1.2-0.4c-0.6-0.1-1.1-0.2-1.6-0.3c-0.5,0-1-0.1-1.5-0.1s-1,0-1.5,0.1
			c-0.5,0-1,0.1-1.6,0.1c-0.6,0.1-1.4,0.2-2.4,0.4c-1.1,0.2-1.8,0.4-2.3,0.5s-1,0.2-1.5,0.4c-0.5,0.1-1,0.3-1.5,0.4
			c-0.5,0.1-1.1,0.3-2,0.5s-1.5,0.4-1.9,0.5c-0.4,0.1-0.8,0.2-1.2,0.3c-0.4,0.1-0.7,0.2-1.1,0.3c-0.3,0.1-0.8,0.2-1.5,0.5
			s-1.1,0.4-1.4,0.4c-0.3,0.1-0.6,0.2-0.8,0.3c-0.3,0.1-0.7,0.2-1.3,0.4c-0.6,0.2-1.1,0.4-1.5,0.6c-0.4,0.2-0.8,0.3-1.2,0.5
			s-0.6,0.3-1,0.4c-0.3,0.1-0.7,0.3-1,0.4c-0.4,0.2-0.7,0.3-0.9,0.4c-0.3,0.1-0.5,0.2-0.7,0.3c-0.2,0.1-0.5,0.2-0.9,0.4
			c-0.4,0.2-0.7,0.3-0.9,0.4c-0.2,0.1-0.3,0.1-0.5,0.2c-0.2,0.1-0.3,0.2-0.6,0.3c-0.2,0.1-0.5,0.2-0.7,0.3c-0.2,0.1-0.4,0.2-0.5,0.3
			c-0.1,0.1-0.3,0.2-0.5,0.3c-0.2,0.1-0.3,0.2-0.5,0.3c-0.1,0.1-0.3,0.2-0.4,0.3c-0.1,0.1-0.3,0.2-0.4,0.3c-0.1,0.1-0.2,0.2-0.4,0.3
			c-0.1,0.1-0.2,0.3-0.1,0.5c0.1,0.2,0.3,0.3,0.6,0.4c0.1,0,0.2,0.1,0.3,0.1c0.2,0.1,0.4,0.2,0.7,0.2c0.3,0.1,0.7,0.2,1.1,0.3
			c0.4,0.1,0.8,0.1,1.3,0.1c0.5,0,1,0,1.6,0c0.6,0,1.1,0,1.6-0.1c0.5,0,0.9-0.1,1.2-0.1c0.3,0,0.6-0.1,0.9-0.1
			c0.3,0,0.5-0.1,0.6-0.1l8.9-0.4c0.2-0.1,0.6-0.1,1-0.3c0.5-0.1,1.1-0.3,1.8-0.5c0.8-0.2,1.5-0.4,2.1-0.7c0.6-0.2,1.2-0.4,1.8-0.6
			c0.6-0.2,1.1-0.4,1.7-0.6c0.5-0.2,1-0.4,1.5-0.6s1-0.4,1.4-0.6c0.5-0.2,0.9-0.4,1.3-0.6c0.4-0.2,0.8-0.4,1.2-0.6
			c0.4-0.2,0.8-0.4,1.2-0.6c0.4-0.2,0.7-0.4,1.1-0.5s0.6-0.3,0.9-0.5c0.3-0.1,0.5-0.3,0.7-0.4c0.2-0.1,0.4-0.2,0.6-0.3
			c0.2-0.1,0.4-0.2,0.6-0.3c0.2-0.1,0.4-0.2,0.6-0.4c0.2-0.2,0.4-0.3,0.6-0.4c0.1-0.1,0.3-0.2,0.4-0.3c0.1-0.1,0.3-0.2,0.4-0.4
			c0.1-0.1,0.3-0.3,0.4-0.4c0.1-0.1,0.2-0.2,0.3-0.3c0.1-0.1,0.2-0.2,0.2-0.3c0.1-0.1,0-0.2-0.2-0.4c-0.2-0.2-0.5-0.3-0.9-0.5
			C83.8,104.5,83.7,104.5,83.6,104.5z"/>
	</g>
	<g>
		<path class="st4" d="M85.1,103.1c-1.8-0.7-5.2-0.6-10.2,0.3c-5,0.9-10.2,2.3-15.6,4.2c-5.3,1.9-9.3,3.9-11.8,5.7
			c-2.4,1.8-2.8,3.1-1.2,3.8c1.8,0.7,5.2,0.6,10.2-0.3c5-0.9,10.1-2.3,15.5-4.2c5.3-1.9,9.3-3.8,11.9-5.7
			C86.4,105.1,86.8,103.9,85.1,103.1"/>
	</g>
	<g>
		<path class="st4" d="M83.4,104.7c-1.6-0.8-4.7-1-9.3-0.5c-4.6,0.5-9.5,1.5-14.5,3c-5,1.5-8.8,3.1-11.4,4.7
			c-2.4,1.6-2.9,2.8-1.5,3.7c1.6,0.8,4.7,1,9.3,0.5c4.6-0.5,9.5-1.5,14.5-3c5-1.5,8.8-3.1,11.4-4.7
			C84.3,106.8,84.8,105.5,83.4,104.7"/>
	</g>
	<g>
		<path class="st7" d="M88.9,46.1l-12,0.2c-0.3,0.6-0.7,1.2-1.1,1.9c-0.4,0.7-1.1,1.7-2,3.2c-0.9,1.4-1.6,2.5-2.1,3.2
			c-0.5,0.7-1,1.5-1.5,2.2c-0.5,0.7-1,1.4-1.5,2.1c-0.5,0.7-1.2,1.8-2.2,3.2c-1,1.5-1.7,2.5-2.2,3.3c-0.5,0.7-0.9,1.4-1.4,2.1
			s-0.9,1.3-1.2,1.9c-0.4,0.6-0.9,1.4-1.7,2.6c-0.7,1.1-1.3,2-1.7,2.7c-0.4,0.6-0.8,1.3-1.3,2c-0.5,0.7-0.9,1.3-1.3,1.9
			c-0.4,0.6-1,1.6-1.9,2.9c-0.9,1.3-1.5,2.3-1.9,2.8c-0.4,0.5-0.7,1-1,1.5c-0.3,0.5-0.8,1.2-1.5,2.2c-0.7,1-1.2,1.7-1.5,2.2
			c-0.4,0.5-0.7,1-1,1.4c-0.3,0.4-0.7,1-1.2,1.8c-0.5,0.8-0.9,1.4-1.2,1.8c-0.3,0.4-0.5,0.8-0.8,1.1c-0.2,0.3-0.5,0.7-0.8,1.2
			c-0.3,0.5-0.6,0.9-0.9,1.3c-0.2,0.4-0.5,0.7-0.7,1.1c-0.2,0.4-0.4,0.6-0.5,0.9c-0.1,0.2-0.3,0.5-0.5,0.8c-0.2,0.3-0.3,0.6-0.5,0.9
			c-0.2,0.3-0.3,0.7-0.2,1.2c0,0.5,0.1,1,0.2,1.4c0.1,0.4,0.3,0.9,0.5,1.3c0.2,0.5,0.4,1,0.8,1.7c0.3,0.7,0.6,1.2,0.7,1.5
			c0.2,0.3,0.3,0.6,0.4,0.8c0.1,0.2,0.3,0.5,0.4,0.7c0,0.1,0.1,0.1,0.3,0.1c0.3,0,0.9-0.2,1.7-0.5c1.1-0.5,2-1,2.7-1.4
			c0.7-0.4,1.3-0.8,1.8-1.2c0.5-0.4,1-0.8,1.5-1.1c0.4-0.4,1.1-0.9,1.9-1.7c0.8-0.8,1.5-1.4,2-1.9c0.5-0.5,1-1,1.5-1.6
			c0.5-0.6,1.2-1.4,2-2.4c0.8-1,1.5-1.9,2-2.5c0.5-0.7,1-1.3,1.4-1.9c0.4-0.6,0.9-1.1,1.3-1.7c0.5-0.6,1.1-1.5,2-2.6
			c0.9-1.1,1.5-2,2-2.6c0.5-0.6,0.9-1.1,1.2-1.6c0.4-0.5,0.8-1.1,1.4-1.9c0.6-0.8,1.1-1.4,1.5-2c0.4-0.6,0.9-1.2,1.3-1.8
			c0.4-0.6,0.9-1.3,1.3-1.9c0.4-0.6,0.8-1.2,1.3-1.9c0.4-0.7,0.8-1.3,1.2-1.9c0.4-0.6,0.7-1.2,1.1-1.7c0.3-0.5,0.7-1,1.1-1.7
			c0.4-0.6,0.7-1.1,0.9-1.5c0.2-0.4,0.5-0.8,0.7-1.2c0.3-0.4,0.6-1,1.1-1.8c0.5-0.8,0.9-1.4,1.2-2c0.3-0.5,0.6-1,0.9-1.4
			c0.2-0.4,0.5-0.8,0.7-1.3c0.2-0.4,0.5-0.9,0.7-1.3c0.2-0.4,0.5-0.9,0.7-1.4c0.3-0.5,0.5-0.9,0.7-1.3c0.2-0.3,0.4-0.7,0.6-1.1
			c0.2-0.4,0.4-0.7,0.6-1c0.2-0.3,0.4-0.6,0.6-1c0.2-0.3,0.4-0.7,0.6-1c0.2-0.3,0.3-0.6,0.5-0.9c0.1-0.3,0.3-0.6,0.5-1
			c0.2-0.4,0.4-0.7,0.5-1c0.1-0.3,0.3-0.6,0.4-0.8s0.1-0.5,0.1-0.8c0-0.3,0-0.6-0.1-0.9c0-0.3-0.1-0.6-0.2-0.9
			c-0.1-0.3-0.1-0.6-0.3-1c-0.1-0.3-0.2-0.7-0.3-0.9L88.9,46.1z"/>
	</g>
	<g>
		<path class="st8" d="M88.9,44.1l-10,0.4L50.6,80.7c-4.5,6.2-9,12.1-13.5,17.8l-1.4,1.9c-0.1,0.2-0.2,0.5-0.2,0.7
			c0.1,0.9,0.9,2.5,2.4,4.9l2.3,3.3c0.2,0.3,0.5,0.4,0.7,0.3c3.6-1.5,7.7-4.7,12.4-9.6c2.4-2.5,4.9-5.5,7.6-9.1l9.4-12.5l14.5-19.7
			c0.8-1.3,1.8-3,3-5.1c0.2-0.5,0.5-1,0.6-1.6C88.9,50.3,89.1,47.8,88.9,44.1"/>
	</g>
	<g>
		<path class="st9" d="M47.1,27.3c2.2,0,4.5,0.1,7,0.3c7.6,0.7,14.6,2,21,4c6.6,2.2,11.1,4.5,13.6,7l0,0c0.6,0.6,0.9,1.1,1,1.6h0
			l-0.4,1.4l0,0c-0.7,0.8-2.2,1.6-4.4,2.2c-3.3,0.9-7.3,1.3-11.9,1.3c-2.2,0-4.5-0.1-7-0.3c-7.6-0.7-14.6-2-21-4
			c-6.6-2.2-11.1-4.5-13.6-7c-2.2-2.1-1-3.9,3.7-5.3C38.4,27.7,42.4,27.3,47.1,27.3z M28.9,36.5L28.9,36.5c3.2,3.3,9,6.1,17.4,8.5
			c8.8,2.5,17.7,3.7,26.7,3.7c6.4,0,11.3-0.7,14.8-2.1h0c-0.7,2.7-1.8,7.6-3.4,14.5c-1,4.4-1.6,9.9-2.1,16.5
			c-0.2,4.2-0.2,7.7,0,10.6c0.3,4.2,0.8,8.7,1.5,13.5h0c-1.1-0.2-2.5-0.3-4.1-0.3l-0.1,0c-4.9,0-10.7,0.9-17.4,2.6
			c-6.6,1.7-11.7,3.7-15.3,5.9c-1.2,0.7-2.2,1.5-2.9,2.2l0,0c-3.2-3.9-5.6-7.4-7.1-10.5c-3.2-5.7-5.7-11.8-7.3-18.3
			c-2.1-8.6-3.1-18.2-3-28.8c0.2-5.2,0.6-9.5,1.2-13.1C28,40.7,28.4,39,28.9,36.5L28.9,36.5z M80,105c1.4,0,2.5,0.1,3.4,0.3
			c0.5,0.1,0.8,0.2,0.9,0.3l-0.2,0.3c-1.7,1.5-4.9,3.2-9.7,4.9c-8.5,2.9-16.3,4.4-23.4,4.6h0c-1.4,0-2.5-0.1-3.3-0.3
			c-0.4-0.1-0.7-0.2-1-0.3l0.2-0.3c1.6-1.5,4.9-3.2,9.7-4.9C65.1,106.6,72.9,105.1,80,105L80,105z M47,23.7c-7.8,0-13.4,1.1-17,3.1
			h0c-0.7,0.5-1.3,1.1-1.8,1.6c-0.5,0.6-1,1.4-1.5,2.5c-0.1,0.1-0.3,0.7-0.6,1.7h0c-0.6,2.2-1.1,4.8-1.7,7.8
			c-0.6,3.7-1.1,8.3-1.3,13.9c-0.2,10.9,0.9,20.9,3.1,30c2,8.2,5.5,16.2,10.7,24.2c1,1.6,2.5,3.7,4.7,6.3h0c0,0,0,0,0,0h0
			c0.4,0.5,0.9,1,1.4,1.6h0c0.2,0.2,0.4,0.4,0.7,0.6c0.4,0.3,0.7,0.6,1.1,0.8c0.3,0.2,0.7,0.3,1.1,0.5h0c1.3,0.4,3.1,0.6,5.3,0.6
			c4.9,0,10.7-0.9,17.4-2.6c6.6-1.7,11.7-3.7,15.3-5.9c0.6-0.4,1.1-0.7,1.6-1.1h0c0.2-0.2,0.4-0.4,0.6-0.6c0.4-0.5,0.7-0.8,0.8-1
			c0.4-0.5,0.6-1,0.8-1.5c0.2-0.5,0.2-1,0.2-1.5c0-0.3,0-0.5-0.1-0.8l-0.2-1.4l0,0l0,0c0-0.2-0.1-0.4-0.1-0.6
			c-0.6-4.1-1-7.3-1.2-9.4c-0.3-3.3-0.5-5.8-0.5-7.5c0-2.2,0-4.6,0.1-7.3c0.4-6.1,1-11.1,1.8-15.1c2-9,3.1-13.9,3.4-14.8l1.5-5h0
			c1.2-2,0.7-4.3-1.3-6.8l0,0c-0.1-0.1-0.2-0.2-0.3-0.4l0,0c-3.3-3.2-9-6-17.4-8.4C64.8,25,56,23.7,47,23.7z"/>
	</g>
	<g>
		<path class="st3" d="M58.6,19.3c0,0-0.1,0-0.1,0c-0.1,0-0.2,0-0.3,0c-0.1,0-0.2,0-0.3,0c-0.1,0-0.2,0-0.3,0.1
			c-0.1,0-0.2,0-0.3,0.1c-0.1,0-0.2,0-0.2,0.1c-0.1,0-0.1,0-0.2,0.1c-0.1,0-0.2,0.1-0.3,0.1c-0.1,0-0.2,0.1-0.3,0.1
			c-0.1,0-0.1,0.1-0.2,0.1C56,20,56,20,55.9,20c-0.1,0-0.2,0.1-0.3,0.1c-0.1,0.1-0.2,0.1-0.2,0.1c-0.1,0-0.1,0.1-0.2,0.1
			c-0.1,0.1-0.2,0.1-0.2,0.2c-0.1,0.1-0.1,0.1-0.2,0.2c-0.1,0-0.1,0.1-0.2,0.2c-0.1,0.1-0.1,0.1-0.2,0.2c-0.1,0.1-0.1,0.1-0.2,0.2
			c-0.1,0.1-0.1,0.1-0.2,0.2c-0.1,0.1-0.1,0.1-0.2,0.2c-0.1,0.1-0.1,0.1-0.2,0.2c-0.1,0.1-0.1,0.1-0.2,0.2c-0.1,0.1-0.1,0.1-0.2,0.2
			c-0.1,0.1-0.1,0.2-0.2,0.3c-0.1,0.1-0.1,0.2-0.2,0.3c-0.1,0.1-0.1,0.2-0.2,0.3c0,0.1-0.1,0.2-0.1,0.3c0,0.1-0.1,0.2-0.1,0.3
			c0,0.1-0.1,0.2-0.1,0.3c0,0.1-0.1,0.2-0.1,0.3c0,0.1-0.1,0.1-0.1,0.2c0,0.1-0.1,0.2-0.1,0.3c0,0.1-0.1,0.2-0.1,0.3
			c0,0.1,0,0.2-0.1,0.2c0,0.1,0,0.2-0.1,0.3c0,0.1,0,0.2-0.1,0.3c0,0.1,0,0.2-0.1,0.3c0,0.1,0,0.2,0,0.3c0,0.1,0,0.2,0,0.2
			c0,0.1,0,0.1,0,0.2c0,0.1,0,0.1,0,0.2c0,0.1,0,0.2,0,0.3c0,0.1,0,0.2,0,0.3c0,0.1,0,0.2,0,0.3s0,0.1,0,0.2c0,0.1,0,0.2,0,0.3
			c0,0.1,0,0.2,0,0.3c0,0.1,0,0.2,0,0.2c0,0.1,0,0.2,0,0.2c0,0.1,0,0.2,0,0.2c0,0.1,0,0.2,0,0.3c0,0.1,0,0.2,0.1,0.3
			c0,0.1,0,0.2,0.1,0.3c0,0.1,0,0.2,0.1,0.3c0,0.1,0.1,0.2,0.1,0.3c0,0.1,0,0.2,0.1,0.2c0,0.1,0.1,0.2,0.1,0.2
			c0,0.1,0.1,0.2,0.1,0.3c0,0.1,0.1,0.2,0.1,0.2c0,0.1,0.1,0.1,0.1,0.2c0,0.1,0.1,0.1,0.1,0.2c0,0.1,0.1,0.2,0.1,0.2
			c0,0.1,0.1,0.2,0.1,0.2c0,0.1,0.1,0.1,0.1,0.2c0,0.1,0.1,0.1,0.1,0.2c0,0.1,0.1,0.1,0.1,0.2c0,0.1,0.1,0.2,0.1,0.2
			c0.1,0.1,0.1,0.2,0.2,0.3c0.1,0.1,0.1,0.2,0.1,0.2c0,0.1,0.1,0.1,0.2,0.2c0.1,0.1,0.1,0.2,0.2,0.2c0.1,0.1,0.1,0.1,0.1,0.2
			c0,0.1,0.1,0.1,0.1,0.2c0.1,0.1,0.1,0.1,0.2,0.2c0.1,0.1,0.1,0.1,0.2,0.2c0.1,0.1,0.1,0.1,0.2,0.2c0,0.1,0.1,0.1,0.2,0.2
			c0.1,0.1,0.1,0.1,0.2,0.2c0,0.1,0.1,0.1,0.2,0.2c0.1,0.1,0.1,0.1,0.2,0.2c0.1,0.1,0.1,0.1,0.2,0.2c0.1,0.1,0.1,0.1,0.2,0.2
			c0.1,0.1,0.1,0.1,0.2,0.2c0.1,0.1,0.1,0.1,0.2,0.2c0.1,0.1,0.1,0.1,0.2,0.2c0.1,0.1,0.1,0.1,0.2,0.2c0.1,0.1,0.1,0.1,0.2,0.2
			c0.1,0.1,0.1,0.1,0.2,0.2c0.1,0.1,0.1,0.1,0.2,0.2c0.1,0.1,0.1,0.1,0.2,0.2c0.1,0,0.1,0.1,0.2,0.2c0.1,0.1,0.1,0.1,0.2,0.1
			c0.1,0,0.1,0.1,0.2,0.1c0.1,0,0.1,0.1,0.2,0.1c0.1,0,0.1,0.1,0.2,0.1c0.1,0,0.1,0.1,0.2,0.1c0.1,0,0.1,0.1,0.2,0.1
			c0.1,0,0.1,0.1,0.2,0.1c0.1,0.1,0.1,0.1,0.2,0.1c0.1,0,0.1,0.1,0.2,0.1c0.1,0,0.1,0.1,0.2,0.1c0.1,0,0.1,0.1,0.2,0.1
			c0.1,0,0.1,0.1,0.2,0.1c0.1,0,0.1,0.1,0.2,0.1l0.1,0.1l0.7,0.2c0-0.1,0-0.2,0.1-0.3c0-0.1,0-0.2,0.1-0.3c0-0.1,0-0.2,0.1-0.3
			c0-0.1,0-0.2,0.1-0.3c0-0.1,0-0.2,0.1-0.2c0-0.1,0-0.2,0.1-0.3c0-0.1,0-0.2,0.1-0.3c0-0.1,0-0.2,0.1-0.2c0-0.1,0-0.2,0.1-0.3
			c0-0.1,0-0.2,0.1-0.2c0-0.1,0-0.2,0.1-0.2c0-0.1,0.1-0.2,0.1-0.3c0-0.1,0.1-0.2,0.1-0.3c0-0.1,0.1-0.1,0.1-0.2
			c0-0.1,0.1-0.1,0.1-0.2c0-0.1,0.1-0.1,0.1-0.2c0-0.1,0.1-0.2,0.1-0.2c0-0.1,0.1-0.1,0.1-0.2c0-0.1,0.1-0.2,0.1-0.3
			c0-0.1,0.1-0.2,0.1-0.2c0-0.1,0.1-0.1,0.1-0.2c0-0.1,0.1-0.1,0.1-0.2c0-0.1,0.1-0.1,0.1-0.2c0-0.1,0.1-0.1,0.1-0.2
			c0-0.1,0.1-0.1,0.1-0.2c0-0.1,0.1-0.1,0.1-0.2c0-0.1,0.1-0.2,0.1-0.2c0-0.1,0.1-0.2,0.1-0.2c0-0.1,0.1-0.2,0.1-0.2
			c0-0.1,0.1-0.1,0.1-0.2c0-0.1,0.1-0.1,0.1-0.2c0-0.1,0.1-0.1,0.1-0.2c0-0.1,0.1-0.1,0.1-0.2c0-0.1,0.1-0.2,0.1-0.2
			c0-0.1,0.1-0.1,0.1-0.2c0-0.1,0.1-0.2,0.1-0.2c0-0.1,0.1-0.2,0.1-0.2c0-0.1,0.1-0.2,0.1-0.2c0-0.1,0.1-0.1,0.1-0.2
			c0-0.1,0.1-0.1,0.1-0.2c0-0.1,0.1-0.1,0.1-0.2c0-0.1,0.1-0.2,0.1-0.2c0-0.1,0.1-0.1,0.1-0.2c0-0.1,0.1-0.1,0.1-0.2
			s0.1-0.1,0.1-0.2c0-0.1,0.1-0.1,0.1-0.2c0-0.1,0.1-0.1,0.1-0.2c0-0.1,0.1-0.2,0.1-0.3c0-0.1,0.1-0.1,0.1-0.2c0-0.1,0-0.1,0.1-0.2
			c0-0.1,0-0.1,0.1-0.2s0-0.2,0.1-0.2c0-0.1,0-0.2,0.1-0.2c0-0.1,0-0.1,0-0.2c0-0.1,0-0.1,0-0.2c0-0.1,0-0.1,0-0.2
			c0-0.1,0-0.2,0-0.2c0-0.1,0-0.1,0-0.2c0-0.1,0-0.1,0-0.2c0-0.1,0-0.1,0-0.2c0-0.1,0-0.2,0-0.3c0-0.1,0-0.2,0-0.3
			c0-0.1,0-0.2,0-0.3c0-0.1,0-0.2,0-0.3c0-0.1,0-0.2,0-0.3c0-0.1,0-0.2,0-0.2c0-0.1,0-0.2-0.1-0.3c0-0.1,0-0.2-0.1-0.3
			c0-0.1,0-0.2-0.1-0.2c0-0.1-0.1-0.2-0.1-0.2c0-0.1-0.1-0.1-0.1-0.2c0-0.1-0.1-0.1-0.1-0.2c0-0.1-0.1-0.1-0.1-0.2
			c0-0.1-0.1-0.1-0.1-0.2c0-0.1-0.1-0.1-0.1-0.2c0-0.1-0.1-0.2-0.1-0.2c-0.1-0.1-0.1-0.2-0.2-0.3c-0.1-0.1-0.1-0.2-0.2-0.2
			c-0.1-0.1-0.1-0.1-0.2-0.2c0-0.1-0.1-0.1-0.2-0.2c-0.1-0.1-0.1-0.1-0.2-0.2c0-0.1-0.1-0.1-0.1-0.2c0,0-0.1-0.1-0.2-0.2
			c-0.1-0.1-0.1-0.1-0.2-0.2c-0.1,0-0.1-0.1-0.2-0.1c-0.1,0-0.1-0.1-0.2-0.1c-0.1,0-0.1-0.1-0.2-0.2c-0.1-0.1-0.2-0.1-0.3-0.2
			c-0.1-0.1-0.2-0.1-0.3-0.2c-0.1-0.1-0.2-0.1-0.3-0.2S61.9,20,61.8,20c-0.1,0-0.2-0.1-0.2-0.1c-0.1,0-0.2-0.1-0.3-0.1
			c-0.1,0-0.2-0.1-0.3-0.1c-0.1,0-0.2-0.1-0.3-0.1c-0.1,0-0.2-0.1-0.3-0.1c-0.1,0-0.2,0-0.3-0.1c-0.1,0-0.2,0-0.3,0
			c-0.1,0-0.2,0-0.3,0c-0.1,0-0.2,0-0.3,0c-0.1,0-0.2,0-0.3,0c-0.1,0-0.2,0-0.3,0c-0.1,0-0.2,0-0.3,0C58.7,19.3,58.6,19.3,58.6,19.3
			z"/>
	</g>
	<g>
		<path class="st3" d="M89.5,14.7c-1.6-1.4-3.4-1.9-5.4-1.5c-2.4,0.5-4.5,1.7-6.1,3.4c-1.7,1.8-3.1,4.2-4.2,7.2
			c-1.8,5.2-2.9,9-3,11.3c2.9-2.2,6-3.7,9.5-4.5c1.4-0.2,2.8-0.3,4.3-0.1c0.7,0.1,1.4,0.2,2.3,0.4c2.6,0.7,4.1,1,4.6,1.1
			c0.9,0.2,1.7,0.2,2.6,0.2c2.2-0.1,3.9-0.8,5.2-2.2c1.6-1.7,1.7-3.7,0.5-6c-0.4-0.7-1.1-1.3-2-1.8c-0.2-0.2-1.4-0.7-3.6-1.4
			c-0.4-0.2-0.7-0.3-0.9-0.5c-0.1-0.1-0.3-0.3-0.5-0.6c-0.9-1.7-1.4-2.7-1.8-3.1C90.6,15.8,90.1,15.2,89.5,14.7"/>
	</g>
	<g>
		<path class="st3" d="M105.7,39.7c-2.2-2.9-5.4-4.3-9.6-4.2c-1.7,0-3.6,0.5-5.8,1.3c-1.1,0.5-1.9,0.8-2.3,1.1
			c-0.6,0.3-1.8,1.1-3.4,2.2l-0.8,0.3c2.5,0.4,4.3,1.3,5.6,2.5c0.5,0.5,1,1.1,1.4,1.9c0.2,0.2,0.8,1.4,1.8,3.5
			c0.2,0.4,0.4,0.7,0.7,1.1c0.6,0.9,1.2,1.6,1.9,2.1c1.6,1.3,3.4,1.8,5.4,1.7c3.2-0.2,5.5-1.8,6.9-5c0.5-1,0.5-2.5,0.2-4.4
			C107.4,42.3,106.7,40.9,105.7,39.7"/>
	</g>
	<g>
		<path class="st0" d="M51,81.1c-0.9,0.1-1.7,0.6-2.3,1.5c-0.6,0.9-0.8,2-0.7,3.2c0.1,1.2,0.6,2.2,1.3,3c0.8,0.8,1.6,1.1,2.5,1.1
			c0.9-0.1,1.7-0.6,2.3-1.5c0.6-0.9,0.8-2,0.7-3.2c-0.1-1.2-0.6-2.2-1.3-3C52.8,81.4,52,81,51,81.1"/>
	</g>
	<g>
		<path class="st3" d="M52.4,82.5c-0.3,0-0.5,0.2-0.7,0.6c-0.2,0.3-0.2,0.7-0.2,1.2c0.1,0.4,0.2,0.8,0.4,1.1
			c0.2,0.3,0.5,0.4,0.8,0.4c0.3,0,0.5-0.2,0.7-0.6c0.2-0.3,0.2-0.7,0.2-1.2c-0.1-0.4-0.2-0.8-0.4-1.1C52.9,82.6,52.6,82.4,52.4,82.5
			"/>
	</g>
	<g>
		<path class="st0" d="M68.6,78.6c-0.9,0.1-1.7,0.6-2.3,1.5c-0.6,0.9-0.8,2-0.7,3.2c0.1,1.2,0.6,2.2,1.3,3c0.8,0.8,1.6,1.1,2.5,1.1
			c0.9-0.1,1.7-0.6,2.3-1.5c0.6-0.9,0.8-2,0.7-3.2c-0.1-1.2-0.6-2.2-1.3-3C70.3,78.9,69.5,78.6,68.6,78.6"/>
	</g>
	<g>
		<path class="st3" d="M69.9,80c-0.3,0-0.5,0.2-0.7,0.6c-0.2,0.3-0.2,0.7-0.2,1.2c0.1,0.4,0.2,0.8,0.4,1.1c0.2,0.3,0.5,0.4,0.8,0.4
			c0.3,0,0.5-0.2,0.7-0.6c0.2-0.3,0.2-0.7,0.2-1.2c-0.1-0.4-0.2-0.8-0.4-1.1C70.4,80.1,70.2,80,69.9,80"/>
	</g>
	<g>
		<path class="st0" d="M64.1,89c-0.6,0-1.2,0.1-1.9,0.2c-0.4,0-1.1,0.1-2.1,0.3c-0.5,0.1-0.9,0.1-1.2,0.2l0,0
			c-0.1,0.1-0.2,0.2-0.3,0.3c-0.1,0.2-0.1,0.4-0.1,0.6c0,0.1,0,0.3,0,0.4c0,0.1,0,0.2,0.1,0.3l0,0c0,0,0,0,0,0.1
			c0.3,0.8,0.5,1.3,0.8,1.6c0.6,0.8,1.4,1.1,2.2,1.1c0.1,0,0.2,0,0.3,0c1-0.2,1.7-0.8,2.2-1.7c0.2-0.5,0.4-1,0.5-1.6
			c0-0.2,0.1-0.5,0.1-0.9l0,0c0-0.2-0.1-0.3-0.1-0.4c-0.1-0.1-0.2-0.2-0.4-0.3C64.2,89.1,64.1,89.1,64.1,89L64.1,89z"/>
	</g>
	<g>
		<path class="st10" d="M75.5,86.6c-0.6-0.3-1.3-0.4-2-0.2c-0.7,0.2-1.3,0.5-1.8,1c-0.4,0.5-0.6,1.1-0.5,1.7c0.1,0.6,0.5,1,1.1,1.3
			c0.6,0.3,1.3,0.4,2,0.3c0.7-0.2,1.3-0.5,1.8-1c0.4-0.5,0.6-1.1,0.5-1.7C76.5,87.3,76.1,86.9,75.5,86.6"/>
	</g>
	<g>
		<path class="st10" d="M47.1,91.4c0.4-0.5,1-0.8,1.7-1c0.7-0.1,1.4-0.1,2,0.2c0.6,0.3,1,0.8,1.1,1.3c0.1,0.6,0,1.1-0.5,1.6
			c-0.4,0.5-1,0.8-1.7,1c-0.7,0.1-1.4,0.1-2-0.2c-0.6-0.3-1-0.8-1.1-1.3C46.5,92.5,46.7,92,47.1,91.4"/>
	</g>
	<g>
		<path class="st11" d="M61.3,91c-0.4,0.1-0.8,0.3-1,0.7c-0.2,0.3-0.3,0.6-0.2,1c0.1,0.3,0.4,0.6,0.8,0.7c0.4,0.1,0.8,0.1,1.3,0
			c0.4-0.1,0.8-0.3,1-0.7c0.2-0.3,0.3-0.6,0.2-1c-0.1-0.3-0.4-0.6-0.8-0.7C62.2,90.9,61.8,90.9,61.3,91"/>
	</g>
</g>
</svg>
